<svg xmlns="http://www.w3.org/2000/svg" version="1.1" xmlns:xlink="http://www.w3.org/1999/xlink" xmlns:svgjs="http://svgjs.dev/svgjs" viewBox="0 0 800 800"><g stroke-width="2" stroke="hsl(105, 69%, 30%)" fill="none" stroke-linecap="round"><path d="M379.54 106.71C388.93 109.55 398.29 113.07 407.61 117.1 416.95 121.07 426.27 125.29 435.56 129.63 444.89 133.57 454.23 137.47 463.57 141.26 472.99 144.49 482.45 147.59 491.96 150.58 501.58 153.03 511.3 155.45 521.08 157.91 531.02 160.01 541.05 162.29 551.16 164.83 561.41 167.24 571.73 170.06 582.05 173.32 592.44 176.67 602.78 180.58 612.97 185.06 623.1 189.76 632.95 195.06 642.4 200.95 651.58 207.11 660.19 213.84 668.08 221.08 675.45 228.58 681.92 236.55 687.36 244.91 692.08 253.48 695.63 262.39 697.94 271.57 699.45 280.88 699.7 290.41 698.69 300.08 697.02 309.84 694.25 319.7 690.46 329.59 686.36 339.53 681.56 349.47 676.23 359.36 671.11 369.27 665.85 379.1 660.62 388.81 656.16 398.51 652.14 407.85 648.69 416.8 646.25 425.74 644.43 434.3 643.2 442.46 642.94 450.62 643.13 458.41 643.66 465.84 644.89 473.31 646.19 480.47 647.43 487.36 648.98 494.38 650.18 501.22 650.91 507.93 651.59 514.89 651.58 521.86 650.81 528.91 649.73 536.36 647.79 544.02 644.96 551.96 641.7 560.42 637.55 569.26 632.56 578.48 627.14 588.24 620.93 598.37 614.01 608.8 606.75 619.59 598.88 630.49 590.48 641.34 581.84 652.14 572.78 662.53 563.38 672.26 553.85 681.37 544.05 689.39 534.08 696.08 524.04 701.61 513.87 705.48 503.63 707.55 493.38 708.26 483.08 707.14 472.78 704.26 462.49 700.32 452.21 695.01 441.97 688.57 431.73 681.94 421.54 674.88 411.39 667.75 401.25 661.51 391.39 656 381.82 651.46 372.23 648.43 362.9 646.54 353.84 645.75 344.73 646.42 335.87 647.91 327.26 650.01 318.57 652.99 310.11 656.06 301.86 658.94 293.53 661.93 285.39 664.23 277.43 665.63 269.37 666.53 261.48 666.23 253.76 664.68 245.92 662.3 238.23 658.6 230.72 653.66 223.08 647.91 215.61 641.03 208.33 633.18 200.95 624.72 193.76 615.49 186.82 605.68 179.81 595.51 173.06 584.95 166.62 574.13 160.18 563.19 154.08 552.14 148.37 541.08 142.74 530.03 137.53 519.03 132.81 508.15 128.23 497.34 124.16 486.65 120.65 476.11 117.33 465.64 114.59 455.3 112.48 445.11 110.56 434.97 109.28 424.94 108.64 415.03 108.19 405.15 108.38 395.37 109.22 385.71 110.2 376.05 111.77 366.72 113.89 357.74 116.06 348.76 118.73 340.11 121.84 331.82 124.92 323.53 128.4 315.59 132.22 308.03 135.95 300.45 139.98 293.24 144.29 286.4 148.44 279.53 152.84 273 157.46 266.81 161.89 260.53 166.54 254.54 171.39 248.81 176.05 242.91 180.93 237.2 186.02 231.64 190.95 225.81 196.11 220.04 201.5 214.3 206.77 208.21 212.31 202.07 218.12 195.88 223.84 189.29 229.87 182.63 236.18 175.92 242.45 168.88 249.03 161.85 255.91 154.92 262.78 147.83 269.96 140.98 277.44 134.48 284.91 128.11 292.68 122.3 300.72 117.17 308.76 112.46 317.07 108.61 325.62 105.75 334.17 103.49 342.95 102.29 351.95 102.19 360.94 102.69 370.14 104.21 379.53 106.7" stroke-dasharray="1 10" transform="rotate(0, 400, 400)" opacity="0.52"></path><path d="M381.71 117.5C390.79 120.31 399.87 123.77 408.95 127.72 418.05 131.64 427.15 135.81 436.26 140.13 445.41 144.08 454.59 148.02 463.8 151.88 473.08 155.21 482.41 158.43 491.8 161.53 501.29 164.12 510.86 166.67 520.49 169.21 530.24 171.39 540.06 173.69 549.92 176.2 559.88 178.53 569.85 181.19 579.78 184.24 589.73 187.3 599.57 190.85 609.2 194.91 618.73 199.11 627.93 203.88 636.68 209.18 645.14 214.7 653 220.76 660.14 227.31 666.78 234.09 672.53 241.33 677.3 248.98 681.4 256.81 684.41 265 686.26 273.48 687.4 282.09 687.39 290.94 686.23 299.96 684.5 309.07 681.77 318.31 678.13 327.62 674.24 336.97 669.71 346.36 664.7 355.73 659.9 365.12 654.95 374.47 650.02 383.73 645.77 392.99 641.92 401.93 638.54 410.54 636.09 419.15 634.17 427.43 632.77 435.39 632.26 443.36 632.16 451.03 632.37 458.41 633.24 465.86 634.21 473.08 635.14 480.11 636.4 487.29 637.39 494.36 637.99 501.39 638.59 508.67 638.61 516.01 637.97 523.48 637.1 531.32 635.46 539.39 633.03 547.73 630.24 556.52 626.64 565.63 622.25 575.07 617.49 584.92 611.98 595.04 605.79 605.33 599.28 615.85 592.15 626.36 584.5 636.68 576.62 646.83 568.29 656.48 559.59 665.39 550.75 673.63 541.62 680.78 532.26 686.62 522.83 691.36 513.22 694.53 503.51 696.03 493.77 696.3 483.94 694.9 474.08 691.9 464.22 688 454.34 682.85 444.46 676.71 434.59 670.41 424.73 663.72 414.9 656.96 405.07 651.01 395.49 645.7 386.17 641.24 376.83 638.15 367.73 636.07 358.88 634.98 349.98 635.25 341.31 636.29 332.85 637.91 324.34 640.42 316.02 643.07 307.9 645.62 299.7 648.39 291.68 650.61 283.83 652.11 275.88 653.24 268.1 653.35 260.47 652.35 252.74 650.68 245.16 647.81 237.74 643.78 230.22 639.03 222.87 633.19 215.71 626.4 208.46 619.01 201.42 610.83 194.61 602 187.76 592.79 181.17 583.1 174.89 573.09 168.63 562.89 162.7 552.49 157.16 542 151.71 531.46 146.68 520.9 142.12 510.4 137.7 499.93 133.79 489.54 130.43 479.27 127.25 469.05 124.64 458.95 122.64 448.99 120.83 439.06 119.64 429.27 119.07 419.61 118.7 409.98 118.94 400.46 119.82 391.1 120.84 381.73 122.44 372.72 124.55 364.07 126.73 355.4 129.39 347.09 132.47 339.13 135.53 331.16 138.98 323.53 142.76 316.26 146.45 308.97 150.43 302.01 154.68 295.39 158.79 288.71 163.13 282.33 167.68 276.24 172.06 270.04 176.65 264.08 181.42 258.33 186.01 252.39 190.81 246.58 195.8 240.89 200.63 234.92 205.67 228.99 210.93 223.06 216.06 216.79 221.44 210.48 227.06 204.13 232.59 197.42 238.39 190.66 244.46 183.89 250.48 176.84 256.79 169.86 263.37 163.01 269.93 156.06 276.78 149.4 283.92 143.12 291.04 137.01 298.44 131.46 306.12 126.61 313.78 122.18 321.71 118.6 329.89 115.97 338.07 113.92 346.48 112.89 355.12 112.9 363.76 113.47 372.62 115.02 381.7 117.49" stroke-dasharray="9 7" transform="rotate(4.04, 400, 400)" opacity="0.55"></path><path d="M384.57 128.28C393.34 131.05 402.15 134.45 410.98 138.32 419.83 142.18 428.71 146.3 437.62 150.57 446.56 154.53 455.56 158.49 464.59 162.4 473.69 165.82 482.85 169.15 492.05 172.37 501.35 175.1 510.71 177.77 520.11 180.42 529.6 182.7 539.13 185.06 548.67 187.57 558.26 189.88 567.83 192.45 577.3 195.33 586.74 198.18 596.03 201.44 605.06 205.15 613.95 208.94 622.47 213.23 630.52 218.01 638.26 222.96 645.39 228.41 651.8 234.33 657.72 240.43 662.81 246.99 666.94 253.95 670.48 261.07 672.99 268.55 674.43 276.34 675.25 284.25 675.02 292.42 673.75 300.8 671.99 309.25 669.32 317.86 665.84 326.58 662.16 335.35 657.9 344.18 653.2 353.04 648.71 361.91 644.06 370.78 639.41 379.61 635.39 388.45 631.69 397.03 628.4 405.34 625.95 413.65 623.95 421.7 622.4 429.49 621.67 437.31 621.3 444.9 621.22 452.29 621.76 459.75 622.4 467.06 623.03 474.25 624.01 481.6 624.76 488.91 625.19 496.23 625.69 503.8 625.69 511.47 625.12 519.28 624.39 527.43 622.98 535.8 620.87 544.42 618.48 553.41 615.35 562.66 611.49 572.15 607.32 581.95 602.44 591.91 596.91 601.94 591.1 612.06 584.68 622.06 577.75 631.76 570.59 641.2 562.97 650.06 554.96 658.13 546.82 665.52 538.34 671.82 529.61 676.84 520.8 680.84 511.78 683.37 502.61 684.35 493.41 684.23 484.09 682.6 474.69 679.53 465.29 675.68 455.83 670.72 446.35 664.86 436.86 658.9 427.36 652.57 417.86 646.17 408.36 640.5 399.07 635.39 390.01 631.03 380.94 627.9 372.08 625.66 363.43 624.31 354.76 624.2 346.27 624.82 337.98 625.99 329.65 628.02 321.48 630.24 313.5 632.45 305.45 634.94 297.55 637.03 289.82 638.52 282 639.79 274.33 640.2 266.82 639.65 259.21 638.55 251.75 636.39 244.45 633.17 237.07 629.32 229.85 624.45 222.83 618.66 215.74 612.3 208.85 605.15 202.2 597.32 195.54 589.09 189.13 580.33 183.03 571.18 176.96 561.8 171.22 552.15 165.87 542.33 160.61 532.42 155.77 522.43 151.38 512.42 147.15 502.4 143.4 492.42 140.19 482.52 137.16 472.64 134.69 462.85 132.8 453.19 131.11 443.56 130.01 434.04 129.52 424.67 129.22 415.32 129.52 406.09 130.43 397.02 131.48 387.95 133.08 379.23 135.19 370.87 137.37 362.49 140.01 354.46 143.06 346.78 146.09 339.07 149.5 331.7 153.22 324.66 156.87 317.57 160.81 310.79 165 304.31 169.05 297.76 173.34 291.46 177.83 285.41 182.15 279.23 186.67 273.24 191.38 267.42 195.91 261.39 200.63 255.47 205.53 249.63 210.27 243.51 215.22 237.41 220.36 231.31 225.37 224.89 230.61 218.44 236.07 211.95 241.43 205.16 247.04 198.35 252.9 191.57 258.69 184.57 264.75 177.67 271.07 170.95 277.36 164.19 283.92 157.74 290.75 151.72 297.55 145.88 304.63 140.63 311.97 136.07 319.29 131.93 326.88 128.62 334.72 126.22 342.54 124.38 350.62 123.5 358.93 123.62 367.23 124.26 375.78 125.83 384.56 128.28" stroke-dasharray="5 7" transform="rotate(8.08, 400, 400)" opacity="1.00"></path><path d="M387.99 139.07C396.47 141.79 405.01 145.11 413.58 148.91 422.17 152.69 430.81 156.74 439.49 160.96 448.21 164.91 456.98 168.88 465.8 172.82 474.67 176.33 483.6 179.75 492.57 183.08 501.61 185.94 510.69 188.75 519.8 191.52 528.97 193.91 538.14 196.37 547.29 198.92 556.45 201.24 565.54 203.77 574.5 206.55 583.39 209.25 592.08 212.3 600.48 215.72 608.71 219.18 616.54 223.08 623.88 227.42 630.91 231.87 637.32 236.78 643.04 242.13 648.29 247.62 652.74 253.54 656.3 259.86 659.31 266.31 661.38 273.12 662.46 280.25 663.01 287.49 662.59 295 661.24 302.74 659.47 310.55 656.89 318.55 653.57 326.69 650.11 334.86 646.12 343.15 641.72 351.5 637.53 359.87 633.18 368.29 628.81 376.71 625 385.14 621.46 393.38 618.27 401.41 615.82 409.45 613.76 417.3 612.09 424.97 611.17 432.66 610.56 440.2 610.2 447.6 610.43 455.09 610.76 462.49 611.09 469.84 611.78 477.34 612.3 484.85 612.55 492.42 612.91 500.21 612.84 508.13 612.29 516.2 611.65 524.56 610.41 533.11 608.55 541.87 606.48 550.93 603.74 560.18 600.34 569.58 596.67 579.19 592.36 588.86 587.43 598.49 582.25 608.11 576.5 617.5 570.23 626.52 563.76 635.2 556.82 643.25 549.49 650.47 542.01 657.01 534.19 662.49 526.09 666.74 517.9 670.05 509.48 671.99 500.87 672.51 492.22 672.06 483.42 670.25 474.51 667.14 465.59 663.37 456.57 658.6 447.5 653.03 438.43 647.4 429.3 641.43 420.15 635.39 411 630 402.03 625.09 393.25 620.83 384.46 617.67 375.85 615.31 367.43 613.73 358.98 613.28 350.7 613.5 342.59 614.24 334.44 615.81 326.45 617.6 318.61 619.44 310.72 621.62 302.97 623.51 295.37 624.93 287.7 626.24 280.17 626.84 272.78 626.62 265.32 625.98 258.01 624.41 250.85 621.89 243.63 618.83 236.57 614.83 229.7 609.96 222.79 604.58 216.09 598.4 209.62 591.55 203.15 584.31 196.94 576.5 191.04 568.25 185.18 559.74 179.65 550.91 174.5 541.84 169.45 532.64 164.8 523.3 160.61 513.88 156.56 504.42 153 494.94 149.95 485.49 147.08 476.04 144.74 466.65 142.97 457.36 141.4 448.08 140.39 438.9 139.98 429.85 139.75 420.81 140.09 411.89 141.03 403.11 142.11 394.34 143.72 385.91 145.82 377.81 147.98 369.71 150.59 361.93 153.6 354.48 156.6 346.99 159.95 339.82 163.62 332.94 167.22 326.01 171.1 319.35 175.23 312.96 179.23 306.47 183.45 300.2 187.88 294.14 192.15 287.93 196.61 281.88 201.25 275.96 205.72 269.83 210.37 263.78 215.19 257.78 219.86 251.52 224.71 245.27 229.75 239.02 234.66 232.49 239.77 225.93 245.09 219.36 250.31 212.54 255.75 205.73 261.43 198.98 267.02 192.08 272.87 185.32 278.96 178.77 285 172.23 291.3 166.04 297.86 160.29 304.38 154.76 311.16 149.82 318.2 145.56 325.21 141.71 332.49 138.67 340.01 136.51 347.51 134.86 355.27 134.14 363.27 134.36 371.26 135.06 379.5 136.65 387.98 139.07" stroke-dasharray="2 9" transform="rotate(12.12, 400, 400)" opacity="0.31"></path><path d="M391.87 149.86C400.06 152.53 408.31 155.77 416.62 159.47 424.93 163.16 433.31 167.14 441.74 171.3 450.19 175.22 458.71 179.19 467.27 183.14 475.86 186.71 484.52 190.22 493.2 193.64 501.92 196.64 510.68 199.58 519.43 202.47 528.21 205 536.97 207.55 545.66 210.18 554.33 212.55 562.9 215.08 571.3 217.82 579.61 220.43 587.67 223.33 595.42 226.55 602.97 229.75 610.12 233.34 616.76 237.31 623.09 241.34 628.82 245.79 633.87 250.64 638.5 255.6 642.36 260.95 645.39 266.69 647.93 272.53 649.61 278.72 650.38 285.24 650.69 291.84 650.13 298.73 648.72 305.86 646.97 313.06 644.49 320.47 641.35 328.05 638.1 335.66 634.37 343.42 630.27 351.3 626.37 359.18 622.31 367.15 618.21 375.19 614.61 383.24 611.23 391.16 608.14 398.94 605.71 406.72 603.61 414.39 601.84 421.94 600.74 429.52 599.92 437.01 599.31 444.43 599.26 451.93 599.29 459.4 599.35 466.87 599.76 474.48 600.03 482.14 600.08 489.89 600.28 497.82 600.12 505.89 599.55 514.11 598.94 522.55 597.81 531.16 596.14 539.93 594.31 548.91 591.89 558.01 588.88 567.19 585.65 576.48 581.82 585.73 577.43 594.86 572.82 603.89 567.66 612.61 562.01 620.88 556.17 628.77 549.88 636 543.19 642.39 536.36 648.11 529.18 652.8 521.69 656.34 514.12 659.01 506.29 660.42 498.25 660.54 490.16 659.81 481.89 657.85 473.48 654.73 465.05 651.06 456.49 646.5 447.85 641.22 439.21 635.92 430.48 630.3 421.69 624.6 412.91 619.49 404.27 614.79 395.79 610.64 387.3 607.48 378.96 605.01 370.77 603.23 362.57 602.48 354.51 602.33 346.61 602.67 338.66 603.8 330.86 605.17 323.19 606.62 315.48 608.47 307.9 610.11 300.45 611.39 292.95 612.67 285.58 613.36 278.35 613.36 271.06 613.07 263.91 611.96 256.92 610.02 249.88 607.64 243.01 604.41 236.33 600.36 229.62 595.86 223.12 590.61 216.86 584.69 210.61 578.4 204.62 571.53 198.93 564.18 193.3 556.57 188 548.59 183.06 540.31 178.23 531.89 173.8 523.26 169.81 514.5 165.96 505.67 162.58 496.77 159.7 487.85 156.99 478.92 154.8 469.99 153.16 461.13 151.7 452.26 150.79 443.47 150.45 434.77 150.28 426.08 150.67 417.49 151.63 409.02 152.73 400.56 154.34 392.4 156.42 384.56 158.56 376.71 161.13 369.16 164.09 361.89 167.05 354.6 170.35 347.58 173.95 340.83 177.49 334.01 181.31 327.43 185.36 321.07 189.31 314.62 193.47 308.35 197.82 302.24 202.04 295.99 206.44 289.86 211 283.82 215.42 277.59 220 271.42 224.75 265.28 229.35 258.91 234.12 252.54 239.07 246.17 243.88 239.57 248.89 232.95 254.08 226.35 259.17 219.56 264.47 212.8 269.98 206.15 275.41 199.39 281.07 192.82 286.95 186.48 292.78 180.21 298.85 174.31 305.16 168.86 311.43 163.65 317.95 159.03 324.71 155.08 331.44 151.53 338.43 148.76 345.66 146.82 352.87 145.38 360.33 144.8 368.03 145.11 375.72 145.88 383.67 147.47 391.86 149.86" stroke-dasharray="6 8" transform="rotate(16.16, 400, 400)" opacity="0.49"></path><path d="M396.04 160.65C403.94 163.26 411.91 166.41 419.92 170 427.96 173.61 436.05 177.5 444.19 181.58 452.35 185.46 460.57 189.41 468.83 193.37 477.11 196.98 485.43 200.55 493.77 204.06 502.13 207.18 510.5 210.24 518.83 213.26 527.18 215.92 535.47 218.59 543.66 221.31 551.81 223.77 559.82 226.34 567.62 229.08 575.32 231.65 582.74 234.47 589.83 237.55 596.71 240.57 603.18 243.92 609.14 247.6 614.8 251.3 619.89 255.37 624.31 259.8 630.02 266.73 637.02 282.51 638.19 291.29 638.3 297.31 637.63 303.62 636.2 310.2 634.49 316.82 632.12 323.68 629.16 330.74 626.13 337.82 622.66 345.08 618.84 352.49 615.22 359.92 611.44 367.47 607.6 375.15 604.22 382.83 601 390.44 598.01 397.98 595.62 405.52 593.49 413.01 591.64 420.44 590.4 427.9 589.38 435.33 588.56 442.74 588.24 450.22 588.01 457.72 587.8 465.26 587.93 472.92 587.96 480.65 587.81 488.48 587.83 496.47 587.55 504.58 586.92 512.81 586.29 521.22 585.23 529.75 583.69 538.39 582.04 547.16 579.87 555.99 577.17 564.82 574.31 573.67 570.9 582.41 566.97 590.94 562.86 599.31 558.24 607.3 553.15 614.79 547.9 621.88 542.21 628.29 536.11 633.86 529.9 638.8 523.32 642.76 516.43 645.63 509.46 647.72 502.21 648.67 494.72 648.44 487.19 647.47 479.46 645.41 471.55 642.31 463.62 638.76 455.54 634.41 447.35 629.43 439.15 624.45 430.83 619.18 422.43 613.81 414.03 608.97 405.74 604.48 397.58 600.46 389.41 597.32 381.36 594.77 373.44 592.82 365.5 591.8 357.69 591.31 350 591.28 342.29 591.99 334.69 592.94 327.22 594.01 319.72 595.5 312.33 596.86 305.06 597.95 297.76 599.12 290.57 599.82 283.52 599.95 276.44 599.89 269.48 599.14 262.68 597.66 255.86 595.84 249.2 593.25 242.72 589.92 236.25 586.21 229.97 581.8 223.94 576.73 217.93 571.34 212.18 565.36 206.73 558.89 201.34 552.17 196.28 545.05 191.57 537.59 186.98 529.97 182.77 522.1 178.99 514.04 175.35 505.91 172.16 497.64 169.45 489.31 166.92 480.94 164.87 472.54 163.35 464.15 162.01 455.75 161.2 447.39 160.93 439.08 160.83 430.78 161.26 422.54 162.24 414.4 163.35 406.25 164.95 398.38 166.99 390.79 169.11 383.18 171.64 375.83 174.54 368.74 177.44 361.62 180.67 354.73 184.2 348.07 187.68 341.35 191.43 334.82 195.4 328.48 199.28 322.04 203.37 315.74 207.65 309.58 211.81 303.28 216.14 297.07 220.64 290.93 224.99 284.62 229.51 278.34 234.18 272.1 238.71 265.65 243.41 259.21 248.27 252.78 253 246.15 257.91 239.54 262.99 232.97 267.97 226.25 273.14 219.61 278.5 213.1 283.78 206.55 289.28 200.2 294.98 194.13 300.62 188.15 306.48 182.56 312.57 177.43 318.61 172.56 324.89 168.27 331.4 164.64 337.88 161.39 344.6 158.89 351.55 157.17 358.48 155.92 365.66 155.49 373.07 155.89 380.48 156.71 388.13 158.3 396.03 160.65" stroke-dasharray="2 1" transform="rotate(20.200000000000003, 400, 400)" opacity="0.39"></path><path d="M400.36 171.44C407.96 173.98 415.63 177.04 423.35 180.52 431.07 184.03 438.86 187.82 446.68 191.81 454.53 195.63 462.41 199.54 470.32 203.48 478.25 207.12 486.2 210.74 494.14 214.32 502.09 217.53 510.03 220.71 517.9 223.85 525.77 226.64 533.55 229.44 541.2 232.27 548.79 234.82 556.22 237.47 563.4 240.24 570.48 242.84 577.26 245.62 583.68 248.62 589.91 251.52 595.72 254.7 601.03 258.17 608.29 263.51 619.3 275.84 622.84 282.86 625.11 290.27 625.49 306.72 623.68 315.7 622.03 321.8 619.79 328.15 617.01 334.72 614.19 341.31 610.98 348.11 607.45 355.1 604.1 362.09 600.59 369.26 597 376.58 593.82 383.91 590.76 391.23 587.89 398.53 585.54 405.83 583.41 413.13 581.5 420.42 580.13 427.74 578.95 435.08 577.93 442.43 577.38 449.86 576.9 457.33 576.44 464.86 576.32 472.49 576.11 480.21 575.76 488.01 575.58 495.94 575.16 503.98 574.45 512.11 573.78 520.36 572.73 528.69 571.27 537.06 569.75 545.51 567.77 553.94 565.32 562.3 562.75 570.62 559.7 578.76 556.16 586.62 552.49 594.27 548.34 601.51 543.74 608.21 539.02 614.5 533.87 620.1 528.33 624.89 522.68 629.09 516.68 632.37 510.36 634.63 503.96 636.21 497.27 636.75 490.33 636.22 483.35 635.07 476.14 632.94 468.73 629.9 461.31 626.47 453.71 622.35 445.97 617.66 438.22 612.99 430.34 608.06 422.34 603.02 414.34 598.46 406.42 594.18 398.59 590.29 390.76 587.18 383.02 584.57 375.38 582.48 367.74 581.23 360.19 580.45 352.75 580.07 345.29 580.38 337.93 580.94 330.69 581.64 323.41 582.76 316.25 583.81 309.19 584.67 302.11 585.68 295.15 586.3 288.31 586.48 281.45 586.55 274.72 586.04 268.15 584.91 261.56 583.52 255.14 581.47 248.9 578.75 242.68 575.72 236.66 572.04 230.87 567.75 225.12 563.17 219.63 558.02 214.43 552.39 209.31 546.52 204.5 540.23 200.04 533.57 195.69 526.76 191.72 519.66 188.16 512.33 184.74 504.91 181.75 497.32 179.22 489.6 176.85 481.85 174.96 474.01 173.57 466.14 172.35 458.25 171.63 450.35 171.43 442.47 171.38 434.58 171.85 426.72 172.84 418.92 173.96 411.1 175.54 403.52 177.55 396.17 179.63 388.81 182.11 381.67 184.94 374.74 187.78 367.78 190.94 361.02 194.38 354.44 197.79 347.8 201.45 341.32 205.34 334.98 209.15 328.56 213.16 322.25 217.36 316.04 221.44 309.7 225.7 303.43 230.12 297.22 234.41 290.86 238.86 284.52 243.45 278.21 247.92 271.74 252.54 265.28 257.31 258.85 261.96 252.26 266.78 245.71 271.76 239.23 276.63 232.66 281.69 226.19 286.92 219.88 292.06 213.57 297.41 207.5 302.94 201.72 308.41 196.08 314.09 190.82 319.98 186.04 325.81 181.52 331.87 177.57 338.15 174.25 344.39 171.3 350.86 169.06 357.55 167.57 364.22 166.5 371.13 166.2 378.26 166.68 385.39 167.55 392.75 169.14 400.35 171.44" stroke-dasharray="5 6" transform="rotate(24.24, 400, 400)" opacity="0.92"></path><path d="M404.67 182.23C411.96 184.7 419.32 187.66 426.71 191.02 434.12 194.42 441.57 198.1 449.05 201.98 456.54 205.73 464.06 209.58 471.58 213.49 479.12 217.13 486.66 220.78 494.16 224.4 501.67 227.71 509.13 230.98 516.51 234.22 523.86 237.14 531.1 240.07 538.19 243.01 545.21 245.68 552.03 248.42 558.6 251.26 565.05 253.9 571.19 256.69 576.97 259.66 585.15 264.06 598.81 273.96 604.09 279.57 608.3 285.46 613.06 298.78 613.56 306.21 612.99 313.95 608.55 330.84 604.91 339.93 602.3 346.07 599.34 352.45 596.07 359.03 592.98 365.62 589.74 372.42 586.39 379.41 583.41 386.4 580.52 393.43 577.77 400.47 575.47 407.53 573.35 414.63 571.4 421.75 569.93 428.9 568.62 436.1 567.43 443.35 566.67 450.65 565.96 458.02 565.28 465.46 564.92 472.97 564.48 480.57 563.93 488.25 563.56 496.02 562.99 503.86 562.17 511.76 561.42 519.74 560.35 527.74 558.93 535.74 557.49 543.74 555.65 551.68 553.39 559.48 551.05 567.19 548.28 574.66 545.08 581.81 541.77 588.72 538.03 595.18 533.88 601.09 529.61 606.59 524.95 611.42 519.92 615.48 514.8 618.99 509.32 621.64 503.53 623.36 497.67 624.49 491.52 624.67 485.11 623.9 478.65 622.6 471.96 620.44 465.06 617.48 458.13 614.2 451.02 610.31 443.73 605.91 436.44 601.56 429 596.95 421.41 592.23 413.83 587.94 406.29 583.87 398.82 580.13 391.35 577.07 383.95 574.43 376.62 572.23 369.29 570.77 362.04 569.73 354.87 569.04 347.7 568.99 340.6 569.17 333.61 569.5 326.6 570.26 319.68 570.98 312.87 571.59 306.05 572.38 299.33 572.88 292.74 573.02 286.14 573.13 279.66 572.76 273.34 571.87 267.02 570.81 260.86 569.17 254.89 566.94 248.94 564.48 243.2 561.42 237.68 557.81 232.22 553.95 227.01 549.56 222.08 544.69 217.23 539.61 212.69 534.11 208.49 528.23 204.39 522.2 200.67 515.85 197.33 509.25 194.13 502.55 191.34 495.63 189 488.56 186.81 481.44 185.07 474.19 183.8 466.86 182.7 459.51 182.07 452.1 181.93 444.66 181.95 437.22 182.45 429.76 183.45 422.31 184.56 414.85 186.12 407.57 188.09 400.48 190.13 393.37 192.54 386.44 195.29 379.68 198.06 372.89 201.14 366.25 204.49 359.76 207.82 353.21 211.39 346.79 215.18 340.47 218.9 334.08 222.83 327.78 226.93 321.55 230.94 315.21 235.12 308.92 239.45 302.68 243.66 296.31 248.03 289.97 252.55 283.65 256.94 277.21 261.48 270.79 266.17 264.42 270.74 257.94 275.47 251.52 280.34 245.19 285.12 238.82 290.06 232.58 295.17 226.52 300.19 220.51 305.39 214.75 310.77 209.31 316.09 204.01 321.59 199.12 327.29 194.69 332.94 190.53 338.79 186.92 344.84 183.92 350.86 181.27 357.09 179.28 363.53 178 369.95 177.12 376.59 176.94 383.45 177.5 390.29 178.4 397.37 179.99 404.66 182.23" stroke-dasharray="1 11" transform="rotate(28.28, 400, 400)" opacity="0.60"></path><path d="M408.8 193.02C415.78 195.41 422.81 198.26 429.86 201.5 436.92 204.78 444.02 208.34 451.12 212.11 458.23 215.76 465.36 219.54 472.47 223.39 479.58 227.02 486.68 230.67 493.72 234.32 500.75 237.68 507.71 241.03 514.56 244.36 521.38 247.4 528.06 250.43 534.57 253.48 541 256.28 547.22 259.12 553.17 262.04 561.76 266.18 576.95 274.94 583.35 279.69 588.93 284.54 597.05 295.43 599.47 301.52 600.91 307.88 600.48 321.97 598.71 329.69 597.21 334.93 595.24 340.43 592.85 346.18 590.45 351.92 587.73 357.91 584.73 364.13 581.89 370.34 578.89 376.79 575.79 383.45 573.01 390.12 570.28 396.85 567.65 403.64 565.42 410.44 563.32 417.3 561.35 424.21 559.81 431.16 558.38 438.17 557.06 445.24 556.11 452.35 555.21 459.54 554.33 466.8 553.74 474.11 553.09 481.5 552.35 488.94 551.79 496.43 551.06 503.98 550.13 511.54 549.28 519.13 548.16 526.7 546.75 534.22 545.34 541.7 543.58 549.06 541.47 556.23 539.31 563.27 536.77 570.03 533.84 576.44 530.83 582.59 527.44 588.27 523.66 593.41 517.69 600.21 503.85 609.55 496.05 611.84 490.7 612.56 485.05 612.45 479.14 611.49 473.19 610.09 467 607.93 460.58 605.06 454.15 601.95 447.51 598.3 440.68 594.19 433.85 590.14 426.85 585.85 419.69 581.44 412.54 577.41 405.4 573.56 398.31 569.97 391.21 566.98 384.16 564.33 377.17 562.05 370.18 560.43 363.24 559.15 356.38 558.2 349.52 557.82 342.72 557.65 336.01 557.63 329.29 558.03 322.65 558.43 316.12 558.75 309.58 559.29 303.15 559.61 296.83 559.66 290.52 559.74 284.33 559.42 278.29 558.68 272.27 557.84 266.4 556.5 260.72 554.65 255.07 552.64 249.62 550.09 244.4 547.05 239.24 543.8 234.32 540.07 229.68 535.88 225.12 531.52 220.85 526.73 216.92 521.57 213.09 516.28 209.61 510.66 206.51 504.75 203.54 498.75 200.96 492.51 198.8 486.07 196.78 479.59 195.19 472.93 194.06 466.16 193.07 459.36 192.53 452.46 192.46 445.48 192.53 438.5 193.05 431.46 194.05 424.37 195.16 417.29 196.69 410.33 198.61 403.5 200.59 396.67 202.94 389.96 205.6 383.38 208.29 376.78 211.28 370.28 214.53 363.9 217.75 357.47 221.22 351.13 224.91 344.87 228.53 338.54 232.36 332.28 236.36 326.07 240.28 319.77 244.36 313.52 248.59 307.3 252.73 300.98 257.01 294.7 261.43 288.44 265.74 282.1 270.2 275.8 274.79 269.55 279.28 263.24 283.91 257.02 288.68 250.91 293.36 244.79 298.19 238.83 303.17 233.08 308.08 227.39 313.14 221.98 318.37 216.9 323.54 211.98 328.88 207.47 334.39 203.41 339.86 199.61 345.52 196.34 351.35 193.65 357.16 191.3 363.16 189.56 369.35 188.49 375.53 187.77 381.9 187.71 388.48 188.33 395.04 189.27 401.82 190.84 408.79 193.02" stroke-dasharray="8 7" transform="rotate(32.32, 400, 400)" opacity="0.93"></path><path d="M412.61 203.81C419.26 206.11 425.94 208.86 432.63 211.96 439.33 215.11 446.04 218.54 452.75 222.18 459.46 225.73 466.17 229.41 472.84 233.19 479.5 236.77 486.13 240.41 492.68 244.05 499.21 247.45 505.65 250.85 511.96 254.24 518.23 257.38 524.35 260.52 530.27 263.66 536.12 266.57 541.74 269.52 547.1 272.53 554.79 276.79 568.24 285.65 573.83 290.36 578.67 295.11 585.56 305.58 587.54 311.36 588.65 317.35 587.97 330.56 586.26 337.8 583.95 345.28 577.4 361.47 573.41 370.16 570.81 376.03 568.06 382.14 565.19 388.48 562.6 394.83 560.03 401.26 557.53 407.77 555.37 414.28 553.31 420.88 551.34 427.54 549.75 434.23 548.23 440.99 546.8 447.82 545.69 454.68 544.63 461.61 543.57 468.59 542.78 475.61 541.93 482.69 541.01 489.79 540.28 496.92 539.39 504.06 538.34 511.18 537.38 518.3 536.2 525.35 534.76 532.31 533.35 539.19 531.65 545.91 529.63 552.4 527.6 558.74 525.23 564.77 522.52 570.43 518.21 578.29 507.77 590.89 501.67 595.34 495.16 598.45 480.55 600.28 472.52 599 467.05 597.54 461.33 595.41 455.39 592.66 449.43 589.72 443.26 586.31 436.89 582.49 430.52 578.73 423.96 574.75 417.24 570.65 410.52 566.88 403.8 563.25 397.1 559.82 390.4 556.91 383.73 554.27 377.09 551.94 370.46 550.19 363.87 548.72 357.34 547.53 350.81 546.85 344.34 546.37 337.94 546.03 331.54 546.08 325.22 546.15 319 546.19 312.77 546.46 306.65 546.57 300.64 546.47 291.71 546.28 274.56 544.14 266.42 542.01 258.53 539.26 243.9 531.28 237.25 526.08 231.01 520.27 220.19 506.59 215.72 498.85 212.97 493.52 210.6 487.92 208.63 482.1 206.79 476.24 205.35 470.17 204.34 463.95 203.46 457.7 203.01 451.31 203 444.81 203.11 438.3 203.66 431.69 204.65 424.99 205.75 418.29 207.24 411.67 209.1 405.14 211.03 398.6 213.3 392.14 215.87 385.76 218.47 379.37 221.35 373.05 224.48 366.81 227.61 360.53 230.96 354.31 234.53 348.14 238.05 341.93 241.76 335.76 245.64 329.63 249.46 323.43 253.43 317.27 257.55 311.14 261.59 304.94 265.78 298.78 270.09 292.66 274.31 286.48 278.67 280.36 283.15 274.31 287.55 268.24 292.08 262.27 296.74 256.43 301.32 250.62 306.03 244.99 310.88 239.59 315.67 234.28 320.6 229.24 325.67 224.55 330.69 220.02 335.87 215.89 341.2 212.21 346.49 208.78 351.95 205.85 357.58 203.47 363.17 201.39 368.94 199.9 374.88 199.02 380.81 198.46 386.92 198.51 393.21 199.19 399.49 200.15 405.95 201.69 412.6 203.81" stroke-dasharray="10 11" transform="rotate(36.36, 400, 400)" opacity="0.65"></path><path d="M415.95 214.6C422.26 216.81 428.58 219.44 434.89 222.4 441.21 225.42 447.52 228.7 453.82 232.19 466.4 238.95 478.85 246.18 490.96 253.6 502.97 260.2 514.51 266.85 525.29 273.51 535.76 279.32 545.24 285.33 553.42 291.61 561.02 297.33 567.08 303.62 571.34 310.55 574.86 317.22 576.52 324.74 576.24 333.13 575.4 341.43 572.89 350.69 568.87 360.88 566.88 365.96 564.62 371.28 562.12 376.84 559.75 382.39 557.23 388.18 554.58 394.2 552.18 400.22 549.78 406.34 547.41 412.54 545.34 418.75 543.32 425.05 541.38 431.41 538.44 444.19 535.67 457.28 533.01 470.53 531.3 483.83 529.31 497.24 526.83 510.47 524.79 523.55 521.87 536.17 517.96 547.9 514.06 558.96 508.95 568.6 502.64 576.31 496.16 582.72 488.44 586.75 479.6 588.09 470.61 587.97 460.56 585.31 449.6 580.27 444.1 577.52 438.38 574.34 432.46 570.81 426.54 567.34 420.43 563.66 414.15 559.86 407.87 556.35 401.57 552.93 395.28 549.67 388.99 546.86 382.71 544.26 376.45 541.91 363.96 538.7 351.58 536.37 339.46 534.7 327.38 534.5 315.58 534.25 304.21 533.54 292.93 533.28 282.14 531.9 272.03 529.17 262.11 526.19 252.97 521.61 244.83 515.47 237.02 508.93 230.32 500.92 224.95 491.67 220.05 482.15 216.56 471.6 214.64 460.24 213.88 454.54 213.51 448.65 213.55 442.62 213.71 436.59 214.28 430.41 215.26 424.12 216.34 417.82 217.79 411.56 219.58 405.34 221.44 399.12 223.62 392.93 226.09 386.8 231.1 374.5 237.15 362.32 244.04 350.34 250.79 338.21 258.27 326.16 266.32 314.27 274.1 302.22 282.44 290.32 291.23 278.78 299.74 267.24 308.76 256.24 318.24 246.11 327.49 236.41 337.29 227.95 347.62 221.11 357.81 215.22 368.61 211.29 380 209.6 385.67 209.18 391.51 209.34 397.5 210.06 403.48 211.04 409.63 212.55 415.94 214.6" stroke-dasharray="10 7" transform="rotate(40.400000000000006, 400, 400)" opacity="0.26"></path><path d="M418.7 225.39C430.59 229.74 442.48 235.47 454.19 242.16 465.9 248.67 477.4 255.7 488.49 262.97 499.47 269.56 509.92 276.27 519.58 283.01 528.95 289 537.34 295.16 544.48 301.55 551.12 307.4 556.33 313.71 559.9 320.55 562.87 327.1 564.17 334.38 563.76 342.42 562.93 350.33 560.61 359.12 556.96 368.76 553.42 378.36 549.02 388.86 543.98 400.26 539.77 411.65 535.54 423.44 531.45 435.48 528.44 447.55 525.52 459.88 522.64 472.29 520.62 484.69 518.33 497.08 515.63 509.17 513.37 521.04 510.37 532.33 506.52 542.64 502.75 552.28 497.93 560.5 492.06 566.9 486.08 572.14 479 575.22 470.89 575.91 462.66 575.41 453.44 572.69 443.34 567.91 433.19 562.73 422.21 556.29 410.53 549.07 398.86 542.86 387.07 537.04 375.35 531.93 363.66 528.52 352.04 525.81 340.67 523.66 329.34 522.85 318.27 522.04 307.62 520.92 297.07 520.33 287 518.85 277.6 516.28 268.39 513.63 259.93 509.61 252.43 504.23 245.25 498.57 239.12 491.56 234.23 483.35 229.78 474.94 226.64 465.47 224.98 455.14 223.77 444.73 224.03 433.58 225.86 421.82 228.05 410.05 231.59 398.26 236.27 386.55 241.07 374.82 246.85 363.12 253.44 351.54 259.93 339.87 267.13 328.26 274.89 316.81 282.43 305.29 290.5 293.97 299.01 283.05 307.28 272.24 316.03 262.02 325.2 252.69 334.17 243.84 343.64 236.21 353.58 230.13 363.39 224.93 373.74 221.56 384.6 220.23 395.41 219.92 406.79 221.64 418.69 225.39" stroke-dasharray="5 0" transform="rotate(44.44, 400, 400)" opacity="0.64"></path><path d="M420.75 236.18C431.91 240.32 442.97 245.74 453.8 252.08 464.62 258.31 475.15 265.09 485.22 272.16 495.19 278.68 504.58 285.36 513.17 292.12 521.5 298.24 528.87 304.52 535.06 310.99 540.83 316.96 545.29 323.31 548.27 330.09 550.77 336.58 551.79 343.68 551.3 351.43 550.5 359.04 548.39 367.42 545.09 376.56 541.94 385.65 537.97 395.57 533.37 406.3 529.49 417.03 525.5 428.11 521.55 439.37 518.52 450.66 515.5 462.12 512.46 473.57 510.18 484.97 507.64 496.24 504.75 507.11 502.28 517.71 499.19 527.64 495.37 536.56 491.68 544.83 487.1 551.74 481.59 556.93 476.04 561.14 469.51 563.4 462.05 563.56 454.51 562.78 446.05 560.06 436.77 555.56 427.44 550.8 417.32 544.91 406.53 538.28 395.73 532.52 384.8 527.01 373.9 522.02 363.03 518.46 352.23 515.45 341.63 512.9 331.1 511.54 320.8 510.22 310.92 508.68 301.15 507.71 291.84 506.05 283.16 503.52 274.69 501.03 266.93 497.4 260.08 492.59 253.53 487.61 247.97 481.43 243.57 474.12 239.56 466.67 236.77 458.18 235.34 448.81 234.33 439.37 234.67 429.14 236.46 418.21 238.59 407.29 241.97 396.22 246.41 385.15 250.97 374.07 256.47 362.95 262.74 351.89 268.94 340.8 275.83 329.76 283.25 318.9 290.51 308.03 298.28 297.41 306.46 287.23 314.46 277.23 322.9 267.86 331.72 259.39 340.38 251.41 349.49 244.61 359 239.28 368.41 234.75 378.28 231.9 388.58 230.92 398.85 230.83 409.59 232.58 420.75 236.18" stroke-dasharray="2 6" transform="rotate(48.48, 400, 400)" opacity="0.58"></path><path d="M422.03 246.97C432.42 250.88 442.65 255.99 452.58 261.96 462.5 267.88 472.07 274.36 481.15 281.17 490.12 287.56 498.49 294.15 506.07 300.86 513.42 307.03 519.85 313.37 525.2 319.88 530.19 325.94 533.98 332.31 536.46 339.04 538.57 345.49 539.37 352.44 538.85 359.94 538.12 367.29 536.23 375.3 533.28 383.96 530.48 392.58 526.93 401.92 522.77 411.96 519.21 422.01 515.47 432.32 511.69 442.75 508.68 453.18 505.6 463.7 502.46 474.1 499.98 484.43 497.25 494.52 494.2 504.12 491.55 513.44 488.37 522.04 484.58 529.62 480.94 536.61 476.53 542.31 471.34 546.43 466.15 549.73 460.1 551.32 453.22 551.07 446.3 550.08 438.54 547.43 430.03 543.25 421.48 538.9 412.2 533.54 402.28 527.49 392.35 522.18 382.28 516.99 372.23 512.16 362.22 508.53 352.24 505.3 342.47 502.42 332.76 500.6 323.28 498.8 314.2 496.86 305.22 495.5 296.7 493.6 288.78 491 281.05 488.55 274.01 485.16 267.81 480.77 261.89 476.3 256.89 470.78 252.97 464.24 249.39 457.59 246.94 449.98 245.74 441.49 244.91 432.95 245.32 423.6 247.07 413.53 249.11 403.46 252.31 393.17 256.51 382.8 260.82 372.44 266.01 361.99 271.93 351.59 277.82 341.19 284.36 330.84 291.41 320.69 298.34 310.59 305.77 300.77 313.59 291.43 321.26 282.31 329.35 273.84 337.79 266.26 346.09 259.17 354.79 253.19 363.84 248.58 372.8 244.69 382.17 242.33 391.88 241.67 401.56 241.77 411.64 243.53 422.03 246.97" stroke-dasharray="9 4" transform="rotate(52.52, 400, 400)" opacity="0.13"></path><path d="M422.49 257.76C432.1 261.43 441.47 266.2 450.51 271.79 459.53 277.36 468.16 283.5 476.27 290.01 484.28 296.19 491.69 302.62 498.33 309.2 504.78 315.34 510.36 321.67 514.94 328.14 519.24 334.24 522.47 340.6 524.54 347.25 526.32 353.65 526.97 360.46 526.45 367.7 525.8 374.81 524.14 382.47 521.53 390.66 519.07 398.82 515.92 407.57 512.17 416.92 508.92 426.26 505.44 435.77 501.85 445.31 498.9 454.83 495.82 464.34 492.65 473.65 490.02 482.87 487.15 491.76 484 500.1 481.2 508.17 477.95 515.49 474.18 521.82 468.45 529.94 453.71 538.5 444.55 538.46 438.18 537.35 431.08 534.81 423.29 530.96 415.48 527.03 407.01 522.19 397.94 516.7 388.87 511.84 379.67 506.98 370.48 502.35 361.32 498.72 352.21 495.34 343.28 492.23 334.42 490.01 325.78 487.82 317.52 485.52 309.37 483.77 301.64 481.6 294.49 478.89 287.52 476.38 281.18 473.11 275.63 469.01 270.34 464.91 265.9 459.89 262.44 453.99 259.29 448.02 257.16 441.16 256.18 433.48 255.51 425.77 255.98 417.26 257.67 408.04 259.62 398.82 262.64 389.34 266.56 379.75 270.61 370.17 275.48 360.49 281.02 350.85 286.56 341.24 292.72 331.69 299.37 322.36 305.94 313.12 312.97 304.19 320.38 295.76 327.68 287.57 335.37 280.02 343.37 273.35 351.27 267.13 359.52 261.96 368.06 258.04 376.54 254.76 385.36 252.86 394.45 252.48 403.51 252.74 412.89 254.5 422.49 257.76" stroke-dasharray="1 1" transform="rotate(56.56, 400, 400)" opacity="0.89"></path><path d="M422.12 268.55C430.92 271.97 439.44 276.39 447.59 281.58 455.71 286.78 463.43 292.54 470.61 298.68 477.71 304.59 484.22 310.78 490 317.15 495.62 323.18 500.44 329.4 504.35 335.77 508.05 341.83 510.8 348.12 512.53 354.63 514.05 360.93 514.58 367.57 514.1 374.54 513.55 381.41 512.1 388.7 509.83 396.41 507.69 404.09 504.92 412.25 501.56 420.87 498.63 429.48 495.42 438.15 492.04 446.76 489.19 455.35 486.16 463.83 482.99 472.03 480.29 480.13 477.34 487.84 474.13 494.97 471.24 501.85 467.94 507.98 464.22 513.17 458.61 519.77 444.65 526.21 436.17 525.75 430.31 524.59 423.81 522.21 416.72 518.71 409.61 515.18 401.91 510.86 393.68 505.91 385.45 501.48 377.11 496.99 368.79 492.6 360.5 489.01 352.25 485.58 344.19 482.31 336.18 479.79 328.4 477.27 320.97 474.67 313.65 472.56 306.73 470.14 300.34 467.29 294.12 464.67 288.5 461.44 283.59 457.53 278.91 453.68 275.01 449.06 272 443.67 269.25 438.26 267.44 432.07 266.65 425.12 266.14 418.15 266.66 410.45 268.28 402.07 270.12 393.69 272.94 385.05 276.59 376.3 280.35 367.56 284.87 358.72 290.02 349.93 295.19 341.18 300.93 332.52 307.14 324.09 313.3 315.79 319.9 307.8 326.85 300.32 333.73 293.09 340.96 286.49 348.47 280.71 355.92 275.34 363.67 270.94 371.66 267.69 379.61 264.97 387.83 263.48 396.26 263.35 404.68 263.75 413.33 265.48 422.12 268.55" stroke-dasharray="1 9" transform="rotate(60.599999999999994, 400, 400)" opacity="0.99"></path><path d="M420.93 279.34C428.9 282.5 436.57 286.56 443.85 291.32 451.1 296.12 457.94 301.47 464.25 307.2 470.49 312.77 476.16 318.64 481.15 324.71 486.02 330.54 490.17 336.57 493.5 342.73 496.68 348.66 499.02 354.8 500.47 361.11 501.78 367.25 502.23 373.66 501.82 380.32 501.37 386.89 500.14 393.79 498.18 401 496.35 408.18 493.93 415.72 490.96 423.58 488.32 431.44 485.39 439.26 482.25 446.93 479.53 454.58 476.6 462.02 473.5 469.14 470.78 476.15 467.82 482.73 464.61 488.72 460.02 497.02 449.26 509 442.86 512.2 436.06 513.72 419.86 510.74 410.46 506.5 404.02 503.38 397.06 499.54 389.66 495.12 382.25 491.13 374.76 487 367.3 482.88 359.86 479.41 352.49 475.99 345.29 472.65 338.15 469.93 331.22 467.17 324.63 464.34 318.13 461.95 312.01 459.29 306.39 456.31 298.44 451.95 285.92 440.72 281.65 433.61 279.29 428.66 277.77 423.03 277.17 416.76 276.79 410.47 277.34 403.53 278.88 395.98 280.61 388.43 283.22 380.65 286.57 372.76 290.04 364.9 294.19 356.96 298.93 349.08 303.69 341.26 308.99 333.54 314.73 326.08 320.44 318.74 326.56 311.74 333.01 305.23 339.41 298.96 346.14 293.28 353.11 288.38 360.04 283.83 367.24 280.16 374.63 277.51 382 275.31 389.59 274.2 397.33 274.28 405.06 274.79 412.95 276.47 420.93 279.34" stroke-dasharray="6 10" transform="rotate(64.64, 400, 400)" opacity="0.34"></path><path d="M418.96 290.13C426.1 293.02 432.92 296.71 439.35 301.03 445.76 305.41 451.75 310.3 457.24 315.57 462.68 320.74 467.58 326.23 471.87 331.92 476.06 337.45 479.61 343.18 482.44 349.05 485.17 354.75 487.16 360.63 488.4 366.66 489.54 372.55 489.95 378.66 489.62 384.94 489.27 391.15 488.26 397.6 486.59 404.27 485.05 410.91 482.96 417.8 480.35 424.89 478.02 431.98 475.36 438.93 472.48 445.66 469.93 452.37 467.14 458.82 464.16 464.89 460.02 473.64 450.88 488.17 445.72 493.53 440.43 497.69 428 501.06 420.78 500.17 415.85 499.07 410.46 497.11 404.66 494.34 398.85 491.6 392.62 488.24 386.02 484.33 379.41 480.77 372.75 477.02 366.15 473.21 359.56 469.9 353.04 466.57 346.71 463.25 340.42 460.41 334.34 457.52 328.57 454.54 320.22 450.52 305.78 441.55 299.98 436.28 295.02 430.68 288.79 416.95 287.72 408.74 287.47 403.07 288.04 396.86 289.48 390.13 291.09 383.39 293.47 376.47 296.53 369.48 299.67 362.52 303.45 355.51 307.75 348.58 312.09 341.71 316.92 334.97 322.14 328.5 327.37 322.14 332.97 316.13 338.87 310.58 344.75 305.25 350.92 300.47 357.31 296.4 363.67 292.62 370.27 289.63 377.02 287.54 383.76 285.81 390.67 285.03 397.68 285.27 404.69 285.87 411.81 287.48 418.96 290.13" stroke-dasharray="4 5" transform="rotate(68.68, 400, 400)" opacity="0.35"></path><path d="M416.28 300.91C428.91 306.29 440.21 314.27 449.71 323.81 459.05 333.17 466.38 343.69 471.26 354.75 475.86 365.34 477.99 376.65 477.51 388.36 477.06 399.87 474.44 412.11 469.75 424.71 465.89 437.31 460.79 449.06 454.96 459.32 450.04 469.31 444.09 477.35 437.21 482.7 430.8 487.34 423.01 488.98 413.97 487.34 405 485.29 394.55 480.56 382.89 473.54 371.24 467.58 359.55 460.88 348.53 454.08 337.65 448.77 327.65 442.95 319.23 436.52 311.2 430.86 305 423.83 301.27 415.32 298.11 406.95 297.57 396.74 300.09 384.86 303.15 372.99 308.86 360.64 316.5 348.66 324.31 336.9 333.85 325.85 344.47 316.46 355.07 307.76 366.72 301.25 378.86 297.77 390.99 295.41 403.66 296.34 416.28 300.91" stroke-dasharray="8 4" transform="rotate(72.72, 400, 400)" opacity="0.58"></path><path d="M413 311.7C423.96 316.47 433.67 323.5 441.74 331.94 449.7 340.33 455.9 349.84 460.01 359.87 463.95 369.63 465.82 380.01 465.5 390.62 465.25 401.11 463.12 412.06 459.14 423.06 455.79 434.06 451.22 444.04 445.89 452.5 441.23 460.77 435.61 467.21 429.19 471.32 423.14 474.95 415.98 476.09 407.84 474.53 399.77 472.77 390.54 468.76 380.41 462.76 370.27 457.54 360.23 451.48 350.85 445.14 341.58 439.9 333.14 434.11 326.11 427.81 319.38 422.14 314.26 415.4 311.25 407.58 308.69 399.9 308.38 390.82 310.69 380.5 313.43 370.17 318.47 359.64 325.18 349.56 332.06 339.67 340.47 330.55 349.83 322.94 359.22 315.89 369.53 310.76 380.23 308.21 390.93 306.51 402.04 307.57 413 311.7" stroke-dasharray="6 7" transform="rotate(76.76, 400, 400)" opacity="0.40"></path><path d="M409.24 322.49C418.56 326.62 426.73 332.68 433.48 339.98 440.16 347.29 445.34 355.65 448.77 364.49 452.12 373.2 453.77 382.43 453.6 391.8 453.52 401.1 451.84 410.66 448.54 420.05 445.69 429.43 441.68 437.73 436.93 444.59 432.66 451.31 427.5 456.4 421.66 459.52 416.1 462.35 409.63 463.14 402.44 461.76 395.31 460.31 387.3 457 378.65 451.97 370 447.5 361.55 442.16 353.74 436.41 346.01 431.44 339.06 425.89 333.33 419.91 327.83 414.41 323.7 408.09 321.36 401.01 319.35 394.06 319.22 386.09 321.29 377.29 323.7 368.48 328.04 359.7 333.8 351.46 339.71 343.36 346.95 336.03 355.01 330.07 363.11 324.52 372 320.62 381.2 318.86 390.41 317.71 399.93 318.83 409.24 322.49" stroke-dasharray="3 9" transform="rotate(80.80000000000001, 400, 400)" opacity="0.14"></path><path d="M405.14 333.28C412.82 336.76 419.53 341.82 425.05 347.93 430.52 354.09 434.76 361.17 437.6 368.69 440.41 376.16 441.85 384.08 441.82 392.05 441.87 400 440.6 408.06 437.94 415.84 435.58 423.61 432.18 430.33 428.08 435.76 422.01 443.09 406.81 449.9 397.78 449.05 391.64 447.92 384.87 445.28 377.68 441.18 370.49 437.46 363.57 432.89 357.27 427.87 351.01 423.34 345.45 418.26 340.94 412.81 336.57 407.68 333.35 401.94 331.6 395.71 330.08 389.56 330.09 382.75 331.9 375.43 333.94 368.12 337.57 361.01 342.37 354.49 347.3 348.06 353.33 342.39 360.04 337.9 366.81 333.69 374.22 330.85 381.88 329.73 389.55 329.03 397.45 330.14 405.14 333.28" stroke-dasharray="3 10" transform="rotate(84.84, 400, 400)" opacity="0.20"></path><path d="M400.84 344.07C413.01 349.86 421.99 360.41 426.58 372.57 431.14 384.72 431.62 398.34 427.33 410.69 423.81 423.03 416.71 431.59 407.95 435.16 399.67 438.5 389.04 436.99 377.54 430.39 366.04 424.77 355.83 416.11 348.92 406.47 342.38 397.63 339.65 386.73 342.5 375.04 345.97 363.34 354.34 353.04 364.98 346.44 375.8 340.5 388.66 339.15 400.84 344.07" stroke-dasharray="4 1" transform="rotate(88.88, 400, 400)" opacity="0.90"></path><path d="M396.51 354.86C405.55 359.22 412.24 367.11 415.74 376.24 419.27 385.43 419.81 395.72 416.73 404.9 414.07 414.08 408.55 420.31 401.71 422.88 395.13 425.4 386.87 424.41 378.24 419.6 369.6 415.33 362.17 408.51 357.32 400.83 352.65 393.57 350.83 384.91 353.11 376.12 355.73 367.33 361.97 360.05 369.88 355.68 377.92 351.65 387.47 351 396.51 354.86" stroke-dasharray="2 7" transform="rotate(92.92, 400, 400)" opacity="0.67"></path><path d="M392.31 365.65C404.24 371.64 410.21 386.68 406.13 398.82 402.77 410.95 391.3 415.21 379.74 408.81 368.17 403.36 360.69 390.39 363.71 378.63 367.38 366.86 380.38 360.55 392.31 365.65" stroke-dasharray="8 8" transform="rotate(96.96, 400, 400)" opacity="0.48"></path></g></svg>