<svg width="566.98203125px" height="153.44000549316405px" xmlns="http://www.w3.org/2000/svg" viewBox="-33.49101562499999 -1.7200027465820256 566.98203125 153.44000549316405" style="background: none;" preserveAspectRatio="xMidYMid"><defs><filter id="editing-hole" x="-100%" y="-100%" width="300%" height="300%"><feFlood flood-color="#ffffff" result="black"></feFlood><feMorphology operator="dilate" radius="2" in="SourceGraphic" result="erode"></feMorphology><feGaussianBlur in="erode" stdDeviation="4" result="blur"></feGaussianBlur><feOffset in="blur" dx="2" dy="2" result="offset"></feOffset><feComposite operator="atop" in="offset" in2="black" result="merge"></feComposite><feComposite operator="in" in="merge" in2="SourceGraphic" result="inner-shadow"></feComposite></filter></defs><g filter="url(#editing-hole)"><g transform="translate(48.197537422180176, 122.90206336975098)"><path d="M41.09-29.50L41.09-29.50L41.09-29.50Q41.92-29.50 41.92-28.93L41.92-28.93L41.92-28.93Q41.92-27.46 40.90-26.14L40.90-26.14L40.90-26.14Q39.87-24.83 38.53-24.51L38.53-24.51L38.53-24.51Q18.69-19.58 18.69-17.28L18.69-17.28L18.69-17.28Q18.69-16.58 22.02-15.55L22.02-15.55L22.02-15.55Q25.34-14.53 28.64-13.41L28.64-13.41L28.64-13.41Q31.94-12.29 31.94-11.33L31.94-11.33L31.94-11.33Q31.94-10.18 31.04-8.90L31.04-8.90L31.04-8.90Q30.14-7.62 29.12-7.62L29.12-7.62L28.42-7.87L28.42-7.87Q18.50-11.84 12.67-13.06L12.67-13.06L12.67-13.06Q10.43-13.57 8.74-13.92L8.74-13.92L8.74-13.92Q7.04-14.27 6.50-14.50L6.50-14.50L6.50-14.50Q5.95-14.72 5.95-15.23L5.95-15.23L5.95-15.23Q5.95-17.41 9.47-19.26L9.47-19.26L9.47-19.26Q13.12-21.12 25.57-25.31L25.57-25.31L25.57-25.31Q38.02-29.50 41.09-29.50ZM60.10-6.85L60.10-6.85L60.10-6.85Q59.26-5.31 57.31-5.31L57.31-5.31L57.31-5.31Q55.36-5.31 54.75-5.86L54.75-5.86L54.75-5.86Q54.14-6.40 54.14-8.74L54.14-8.74L54.14-8.74Q54.14-11.07 56.64-19.62L56.64-19.62L56.64-19.62Q59.14-28.16 59.14-29.47L59.14-29.47L59.14-29.47Q59.14-30.78 58.62-30.78L58.62-30.78L58.62-30.78Q57.86-30.78 56.70-29.47L56.70-29.47L56.70-29.47Q55.55-28.16 54.78-26.88L54.78-26.88L54.02-25.54L54.02-25.54Q49.92-18.88 46.56-12.19L46.56-12.19L46.56-12.19Q43.20-5.50 41.63-2.40L41.63-2.40L41.63-2.40Q40.06 0.70 38.91 1.54L38.91 1.54L38.91 1.54Q37.76 2.37 35.62 2.37L35.62 2.37L35.62 2.37Q33.47 2.37 33.47 1.41L33.47 1.41L33.47 1.22L33.47 1.22Q33.47 0.58 36.80-4.74L36.80-4.74L36.80-4.74Q49.09-24.26 55.30-36.61L55.30-36.61L55.30-36.61Q56.77-39.55 56.77-42.11L56.77-42.11L56.77-42.88L56.77-42.88Q56.77-44.03 59.42-44.74L59.42-44.74L59.42-44.74Q62.08-45.44 63.81-45.44L63.81-45.44L65.92-45.44L65.92-45.44Q68.61-45.44 69.89-44.42L69.89-44.42L69.89-44.42Q70.46-44.03 70.46-43.39L70.46-43.39L70.46-43.39Q70.46-42.75 67.94-34.53L67.94-34.53L67.94-34.53Q65.41-26.30 65.41-24.64L65.41-24.64L65.41-24.64Q65.41-22.98 65.92-22.98L65.92-22.98L65.92-22.98Q67.52-22.98 71.55-26.91L71.55-26.91L71.55-26.91Q75.58-30.85 80.77-36.35L80.77-36.35L80.77-36.35Q84.99-40.96 88.83-44.29L88.83-44.29L88.83-44.29Q89.66-45.06 90.82-45.18L90.82-45.18L90.82-45.18Q93.31-45.57 96.16-45.57L96.16-45.57L96.16-45.57Q99.01-45.57 99.01-44.29L99.01-44.29L99.01-44.29Q99.01-44.03 98.98-43.90L98.98-43.90L98.98-43.90Q98.94-43.78 96.58-40.03L96.58-40.03L96.58-40.03Q94.21-36.29 90.82-30.75L90.82-30.75L90.82-30.75Q87.42-25.22 84.03-19.30L84.03-19.30L84.03-19.30Q80.64-13.38 78.27-8.03L78.27-8.03L78.27-8.03Q75.90-2.69 75.90-0.19L75.90-0.19L75.90-0.19Q75.33 0.90 74.11 0.90L74.11 0.90L74.11 0.90Q67.78 0.90 67.78-1.34L67.78-1.34L67.78-1.34Q67.78-6.53 80.64-26.24L80.64-26.24L80.64-26.24Q82.30-28.74 82.30-29.38L82.30-29.38L82.30-29.38Q82.30-30.02 81.34-30.02L81.34-30.02L81.34-30.02Q78.91-30.02 71.10-21.34L71.10-21.34L71.10-21.34Q63.30-12.67 60.10-6.85ZM96.32-2.24L96.32-2.24L96.45-3.58L96.45-3.58Q96.45-4.10 96.06-4.10L96.06-4.10L96.06-4.10Q95.49-4.10 93.73-2.43L93.73-2.43L93.73-2.43Q91.97-0.77 89.31 0.93L89.31 0.93L89.31 0.93Q86.66 2.62 84.00 2.62L84.00 2.62L84.00 2.62Q81.34 2.62 81.34-1.28L81.34-1.28L81.34-1.28Q81.34-6.14 85.57-12.48L85.57-12.48L85.57-12.48Q87.74-15.68 90.59-18.40L90.59-18.40L90.59-18.40Q93.44-21.12 97.54-22.88L97.54-22.88L97.54-22.88Q101.63-24.64 106.11-24.64L106.11-24.64L106.11-24.64Q108.48-24.64 110.14-23.39L110.14-23.39L110.14-23.39Q111.81-22.14 111.81-20.32L111.81-20.32L111.81-20.32Q111.81-18.50 110.72-18.50L110.72-18.50L110.72-18.50Q110.14-18.50 109.18-19.20L109.18-19.20L109.18-19.20Q107.39-20.42 103.55-20.42L103.55-20.42L103.55-20.42Q98.50-20.42 93.98-15.84L93.98-15.84L93.98-15.84Q89.47-11.26 89.47-6.78L89.47-6.78L89.47-6.78Q89.47-6.21 89.82-5.70L89.82-5.70L89.82-5.70Q90.18-5.18 90.82-5.18L90.82-5.18L90.82-5.18Q92.74-5.18 95.74-7.84L95.74-7.84L95.74-7.84Q98.75-10.50 101.63-15.49L101.63-15.49L101.63-15.49Q101.82-16.06 103.04-16.58L103.04-16.58L103.04-16.58Q104.26-17.09 105.92-17.09L105.92-17.09L105.92-17.09Q108.29-16.90 108.29-16.06L108.29-16.06L108.29-16.06Q108.29-16 107.81-15.26L107.81-15.26L107.81-15.26Q107.33-14.53 106.11-12.61L106.11-12.61L106.11-12.61Q104.90-10.69 102.69-6.30L102.69-6.30L102.69-6.30Q100.48-1.92 100.10 0.64L100.10 0.64L100.10 0.64Q100.03 1.41 99.46 1.41L99.46 1.41L99.46 1.41Q96.32 1.41 96.32-2.24ZM134.34-23.68L134.34-23.68L134.34-23.68Q137.09-23.68 137.09-20.48L137.09-20.48L137.09-20.48Q137.09-17.28 134.85-12.42L134.85-12.42L134.85-12.42Q131.58-5.57 127.42-0.58L127.42-0.58L127.42-0.58Q125.44 1.79 122.43 1.79L122.43 1.79L122.43 1.79Q121.47 1.79 121.47 1.28L121.47 1.28L121.73 0.58L121.73 0.58Q124.74-3.84 127.07-8.54L127.07-8.54L127.07-8.54Q129.41-13.25 129.41-15.36L129.41-15.36L129.41-15.36Q129.41-15.74 129.18-16L129.18-16L129.18-16Q128.96-16.26 128.45-16.32L128.45-16.32L128.45-16.32Q125.82-16.32 121.38-12.03L121.38-12.03L121.38-12.03Q116.93-7.74 113.70-3.39L113.70-3.39L113.70-3.39Q110.46 0.96 109.54 2.66L109.54 2.66L109.54 2.66Q108.61 4.35 107.65 4.70L107.65 4.70L107.65 4.70Q106.69 5.06 104.51 5.06L104.51 5.06L104.51 5.06Q102.34 5.06 102.34 4.29L102.34 4.29L102.34 4.29Q102.34 4.03 102.94 3.07L102.94 3.07L102.94 3.07Q103.55 2.11 107.55-5.57L107.55-5.57L107.55-5.57Q111.55-13.25 116.00-21.22L116.00-21.22L116.00-21.22Q120.45-29.18 125.73-37.50L125.73-37.50L125.73-37.50Q131.01-45.82 136.29-51.10L136.29-51.10L136.29-51.10Q141.57-56.38 145.47-56.38L145.47-56.38L145.47-56.38Q148.48-56.38 148.48-52.86L148.48-52.86L148.48-52.86Q148.48-46.08 142.30-38.34L142.30-38.34L142.30-38.34Q136.13-30.59 131.01-28.22L131.01-28.22L131.01-28.22Q129.86-27.71 128.61-27.71L128.61-27.71L128.61-27.71Q127.36-27.71 127.36-28.29L127.36-28.29L127.74-28.93L127.74-28.93Q134.02-33.28 137.70-38.98L137.70-38.98L137.70-38.98Q141.38-44.67 141.38-46.98L141.38-46.98L141.38-46.98Q141.38-47.74 141.18-48.03L141.18-48.03L141.18-48.03Q140.99-48.32 140.29-48.32L140.29-48.32L140.29-48.32Q137.98-48.32 132.77-40.83L132.77-40.83L132.77-40.83Q127.55-33.34 123.39-25.41L123.39-25.41L123.39-25.41Q119.23-17.47 119.23-15.74L119.23-15.74L119.23-15.74Q119.23-15.04 119.71-15.04L119.71-15.04L119.71-15.04Q120.19-15.04 121.02-15.68L121.02-15.68L121.02-15.68Q121.98-16.58 123.49-17.92L123.49-17.92L123.49-17.92Q124.99-19.26 128.54-21.47L128.54-21.47L128.54-21.47Q132.10-23.68 134.34-23.68ZM155.01-23.04L155.01-23.04L162.37-23.42L162.37-23.42Q163.07-23.36 163.07-22.72L163.07-22.72L163.07-22.66L163.07-22.66Q163.07-21.18 160.77-20.54L160.77-20.54L160.77-20.54Q159.49-20.54 157.18-19.74L157.18-19.74L157.18-19.74Q154.88-18.94 154.24-18.56L154.24-18.56L154.24-18.56Q152.58-17.73 152.58-16.96L152.58-16.96L152.58-16.96Q152.58-16.19 154.37-14.98L154.37-14.98L154.37-14.98Q155.01-14.59 155.58-13.44L155.58-13.44L155.58-13.44Q156.16-12.29 156.16-10.50L156.16-10.50L156.16-10.50Q156.16-6.40 152.29 1.28L152.29 1.28L152.29 1.28Q148.42 8.96 143.07 16.32L143.07 16.32L143.07 16.32Q137.73 23.68 131.68 29.18L131.68 29.18L131.68 29.18Q125.63 34.69 121.79 34.69L121.79 34.69L121.79 34.69Q120.70 34.69 120.13 34.18L120.13 34.18L120.13 34.18Q119.55 33.66 119.46 33.15L119.46 33.15L119.46 33.15Q119.36 32.64 119.36 31.74L119.36 31.74L119.36 31.74Q119.36 27.90 126.02 14.18L126.02 14.18L126.02 14.18Q132.67 0.45 143.10-16.96L143.10-16.96L143.10-16.96Q143.23-17.22 143.23-17.47L143.23-17.47L143.23-17.47Q143.23-19.01 139.97-19.01L139.97-19.01L139.97-19.01Q139.39-19.01 139.39-19.65L139.39-19.65L139.39-19.65Q139.39-20.74 141.70-22.21L141.70-22.21L141.70-22.21Q142.34-22.66 143.87-22.66L143.87-22.66L144.90-22.66L144.90-22.66Q146.30-22.66 146.62-23.17L146.62-23.17L146.62-23.17Q153.86-36.16 161.12-45.34L161.12-45.34L161.12-45.34Q168.38-54.53 172.48-54.53L172.48-54.53L172.48-54.53Q175.10-54.53 175.10-51.26L175.10-51.26L175.10-51.26Q175.10-47.10 172.03-41.63L172.03-41.63L172.03-41.63Q168.96-36.16 164.90-32.38L164.90-32.38L164.90-32.38Q160.83-28.61 158.08-28.61L158.08-28.61L158.08-28.61Q157.38-28.61 157.38-28.99L157.38-28.99L157.38-28.99Q157.38-29.57 158.21-30.14L158.21-30.14L158.21-30.14Q161.73-32.51 164.99-37.70L164.99-37.70L164.99-37.70Q168.26-42.88 168.26-45.06L168.26-45.06L168.26-45.06Q168.26-45.76 167.74-45.76L167.74-45.76L167.74-45.76Q165.31-45.76 159.14-36.45L159.14-36.45L159.14-36.45Q152.96-27.14 152.96-24.51L152.96-24.51L152.96-24.51Q152.96-23.04 155.01-23.04ZM146.94-14.27L146.94-14.27L146.94-14.27Q146.24-14.27 145.54-13.18L145.54-13.18L145.54-13.18Q139.26-2.43 134.59 7.90L134.59 7.90L134.59 7.90Q129.92 18.24 129.92 21.63L129.92 21.63L129.92 21.70L129.92 21.70Q129.92 22.98 130.88 22.98L130.88 22.98L130.88 22.98Q132.03 22.98 135.10 19.68L135.10 19.68L135.10 19.68Q138.18 16.38 141.44 11.74L141.44 11.74L141.44 11.74Q144.70 7.10 147.23 1.28L147.23 1.28L147.23 1.28Q149.76-4.54 149.76-8.83L149.76-8.83L149.76-8.83Q149.76-14.27 146.94-14.27ZM174.21-3.33L174.46-5.76L174.46-5.76Q174.46-6.21 174.14-6.21L174.14-6.21L174.02-6.21L173.06-5.76L173.06-5.76Q168.90-1.73 166.27-0.22L166.27-0.22L166.27-0.22Q163.65 1.28 160.83 1.28L160.83 1.28L160.83 1.28Q159.55 1.28 158.53 0.51L158.53 0.51L158.53 0.51Q157.50-0.26 157.50-2.43L157.50-2.43L157.50-2.43Q157.50-4.61 159.74-10.11L159.74-10.11L159.74-10.11Q161.98-15.62 165.31-20.64L165.31-20.64L165.31-20.64Q168.64-25.66 171.14-26.30L171.14-26.30L171.14-26.30Q171.97-26.56 173.38-26.56L173.38-26.56L173.38-26.56Q174.78-26.56 174.78-25.79L174.78-25.79L174.78-25.79Q174.78-25.54 172.48-22.24L172.48-22.24L172.48-22.24Q170.18-18.94 167.90-14.72L167.90-14.72L167.90-14.72Q165.63-10.50 165.63-8.38L165.63-8.38L165.63-8.38Q165.63-6.27 167.10-6.27L167.10-6.27L167.10-6.27Q169.86-6.27 173.44-9.86L173.44-9.86L173.44-9.86Q177.02-13.44 182.85-21.18L182.85-21.18L182.85-21.18Q184.45-23.49 187.97-23.49L187.97-23.49L187.97-23.49Q189.89-23.49 189.89-22.72L189.89-22.72L189.89-22.72Q189.89-22.53 189.70-22.21L189.70-22.21L189.70-22.21Q179.65-6.72 177.60 0L177.60 0L177.60 0Q177.34 0.77 176.96 0.77L176.96 0.77L176.77 0.77L176.77 0.77Q174.21 0.77 174.21-3.33L174.21-3.33ZM200.51 1.86L200.51 1.86L200.51 1.86Q200.51 5.50 197.09 12.03L197.09 12.03L197.09 12.03Q193.66 18.56 188.90 24.77L188.90 24.77L188.90 24.77Q184.13 30.98 178.56 35.55L178.56 35.55L178.56 35.55Q172.99 40.13 169.15 40.13L169.15 40.13L169.15 40.13Q166.46 40.13 166.46 35.65L166.46 35.65L166.46 35.65Q166.46 31.17 169.09 25.70L169.09 25.70L169.09 25.70Q171.71 20.22 175.39 15.65L175.39 15.65L175.39 15.65Q179.07 11.07 183.23 7.87L183.23 7.87L183.23 7.87Q187.39 4.67 190.21 4.67L190.21 4.67L190.21 4.67Q191.17 4.67 191.17 5.12L191.17 5.12L191.17 5.12Q191.17 5.57 190.40 5.95L190.40 5.95L190.40 5.95Q187.97 7.23 184.22 11.42L184.22 11.42L184.22 11.42Q180.48 15.62 177.44 21.02L177.44 21.02L177.44 21.02Q174.40 26.43 174.40 30.14L174.40 30.14L174.40 30.14Q174.40 31.74 175.55 31.74L175.55 31.74L175.55 31.74Q177.92 31.74 182.50 26.82L182.50 26.82L182.50 26.82Q187.07 21.89 190.78 15.20L190.78 15.20L190.78 15.20Q194.50 8.51 194.50 4.29L194.50 4.29L194.50 4.29Q194.50 1.34 192.99-0.35L192.99-0.35L192.99-0.35Q191.49-2.05 188.61-2.05L188.61-2.05L188.61-2.05Q186.50-2.05 185.09-1.70L185.09-1.70L185.09-1.70Q183.68-1.34 183.39-1.34L183.39-1.34L183.39-1.34Q183.10-1.34 183.10-1.89L183.10-1.89L183.10-1.89Q183.10-2.43 183.14-2.66L183.14-2.66L183.14-2.66Q183.17-2.88 183.39-3.46L183.39-3.46L183.39-3.46Q183.62-4.03 183.90-4.54L183.90-4.54L183.90-4.54Q184.19-5.06 184.80-5.60L184.80-5.60L184.80-5.60Q185.41-6.14 186.18-6.40L186.18-6.40L186.18-6.40Q186.94-6.66 188.16-7.10L188.16-7.10L188.16-7.10Q189.38-7.55 192.48-8.93L192.48-8.93L192.48-8.93Q195.58-10.30 197.98-11.68L197.98-11.68L197.98-11.68Q200.38-13.06 202.34-14.94L202.34-14.94L202.34-14.94Q204.29-16.83 204.29-18.43L204.29-18.43L204.29-18.43Q204.29-20.67 199.30-20.67L199.30-20.67L199.30-20.67Q197.12-20.67 195.14-20.10L195.14-20.10L193.09-19.58L193.09-19.58Q192.64-19.58 192.64-20.22L192.64-20.22L192.64-20.22Q192.64-21.82 196.16-23.42L196.16-23.42L196.16-23.42Q199.68-25.02 204.35-25.02L204.35-25.02L204.35-25.02Q206.08-25.02 208.26-24.45L208.26-24.45L208.26-24.45Q212.42-23.42 212.42-20.80L212.42-20.80L212.42-20.80Q212.42-18.62 209.73-16.06L209.73-16.06L209.73-16.06Q207.04-13.50 203.78-11.65L203.78-11.65L203.78-11.65Q195.14-6.85 195.14-5.82L195.14-5.82L195.14-5.82Q195.14-5.25 195.97-4.70L195.97-4.70L195.97-4.70Q196.80-4.16 197.82-3.62L197.82-3.62L197.82-3.62Q198.85-3.07 199.68-1.66L199.68-1.66L199.68-1.66Q200.51-0.26 200.51 1.86ZM225.02-3.33L225.28-5.76L225.28-5.76Q225.28-6.21 224.96-6.21L224.96-6.21L224.83-6.21L223.87-5.76L223.87-5.76Q219.71-1.73 217.09-0.22L217.09-0.22L217.09-0.22Q214.46 1.28 211.65 1.28L211.65 1.28L211.65 1.28Q210.37 1.28 209.34 0.51L209.34 0.51L209.34 0.51Q208.32-0.26 208.32-2.43L208.32-2.43L208.32-2.43Q208.32-4.61 210.56-10.11L210.56-10.11L210.56-10.11Q212.80-15.62 216.13-20.64L216.13-20.64L216.13-20.64Q219.46-25.66 221.95-26.30L221.95-26.30L221.95-26.30Q222.78-26.56 224.19-26.56L224.19-26.56L224.19-26.56Q225.60-26.56 225.60-25.79L225.60-25.79L225.60-25.79Q225.60-25.54 223.30-22.24L223.30-22.24L223.30-22.24Q220.99-18.94 218.72-14.72L218.72-14.72L218.72-14.72Q216.45-10.50 216.45-8.38L216.45-8.38L216.45-8.38Q216.45-6.27 217.92-6.27L217.92-6.27L217.92-6.27Q220.67-6.27 224.26-9.86L224.26-9.86L224.26-9.86Q227.84-13.44 233.66-21.18L233.66-21.18L233.66-21.18Q235.26-23.49 238.78-23.49L238.78-23.49L238.78-23.49Q240.70-23.49 240.70-22.72L240.70-22.72L240.70-22.72Q240.70-22.53 240.51-22.21L240.51-22.21L240.51-22.21Q230.46-6.72 228.42 0L228.42 0L228.42 0Q228.16 0.77 227.78 0.77L227.78 0.77L227.58 0.77L227.58 0.77Q225.02 0.77 225.02-3.33L225.02-3.33ZM257.79-8.13L257.79-8.13Q256.58-8.13 255.94-9.38L255.94-9.38L255.94-9.38Q255.30-10.62 255.30-11.81L255.30-11.81L255.30-11.81Q255.30-12.99 256.06-14.53L256.06-14.53L256.06-14.53Q256.06-15.36 255.42-15.36L255.42-15.36L255.42-15.36Q252.93-15.36 249.73-12.38L249.73-12.38L249.73-12.38Q246.53-9.41 244.35-6.24L244.35-6.24L244.35-6.24Q242.18-3.07 240.38 0.13L240.38 0.13L240.38 0.13Q239.30 2.05 235.90 2.05L235.90 2.05L235.90 2.05Q234.18 2.05 234.18 1.28L234.18 1.28L234.18 1.28Q234.18-0.45 240.48-11.62L240.48-11.62L240.48-11.62Q246.78-22.78 248.83-23.55L248.83-23.55L248.83-23.55Q250.24-24.26 252.00-24.26L252.00-24.26L252.00-24.26Q253.76-24.26 253.76-23.52L253.76-23.52L253.76-23.52Q253.76-22.78 252.29-20.67L252.29-20.67L252.29-20.67Q250.82-18.56 250.82-17.98L250.82-17.98L250.82-17.98Q250.82-17.41 251.26-17.41L251.26-17.41L251.26-17.41Q251.52-17.41 252.67-18.18L252.67-18.18L252.67-18.18Q255.49-20.29 259.58-22.53L259.58-22.53L260.16-23.30L260.16-23.30Q261.70-25.22 264.61-25.22L264.61-25.22L264.61-25.22Q267.52-25.22 267.52-24.06L267.52-24.06L267.52-24.06Q267.39-23.74 266.88-23.04L266.88-23.04L266.88-23.04Q261.82-16.13 258.37-8.58L258.37-8.58L258.37-8.58Q258.11-8.13 257.79-8.13L257.79-8.13ZM258.88-2.11L258.88-2.11Q258.88-3.65 260.54-5.09L260.54-5.09L260.54-5.09Q262.21-6.53 264.00-6.53L264.00-6.53L264.00-6.53Q267.52-6.53 267.52-4.29L267.52-4.29L267.52-4.29Q267.52-2.62 265.86-1.22L265.86-1.22L265.86-1.22Q264.19 0.19 262.34 0.19L262.34 0.19L262.34 0.19Q258.88 0.19 258.88-2.11L258.88-2.11ZM305.86 3.20L305.86 3.20L305.86 3.20Q304.77 3.20 304.19 1.89L304.19 1.89L304.19 1.89Q303.62 0.58 303.62-0.32L303.62-0.32L303.62-0.32Q303.62-3.71 308.80-12.03L308.80-12.03L308.80-12.03Q310.53-14.85 310.53-15.81L310.53-15.81L310.53-15.81Q310.53-16.77 309.63-16.77L309.63-16.77L309.63-16.77Q307.26-16.77 303.42-13.15L303.42-13.15L303.42-13.15Q299.58-9.54 296.90-5.89L296.90-5.89L294.21-2.30L294.21-2.30Q293.12-0.77 290.85-0.77L290.85-0.77L290.85-0.77Q288.58-0.77 288.58-1.60L288.58-1.60L288.58-1.60Q288.58-2.88 291.68-7.97L291.68-7.97L291.68-7.97Q294.78-13.06 294.78-14.78L294.78-14.78L294.78-14.78Q294.78-15.30 294.50-15.58L294.50-15.58L294.50-15.58Q294.21-15.87 293.89-15.87L293.89-15.87L293.89-15.87Q291.84-15.87 289.34-14.24L289.34-14.24L289.34-14.24Q286.85-12.61 284.67-10.24L284.67-10.24L284.67-10.24Q280.38-5.57 277.76-1.54L277.76-1.54L276.74 0.06L276.74 0.06Q275.39 1.98 271.87 1.98L271.87 1.98L271.87 1.98Q270.27 1.98 270.27 1.15L270.27 1.15L270.27 1.15Q270.27-0.58 276.86-12.29L276.86-12.29L276.86-12.29Q283.46-24 285.44-24.77L285.44-24.77L285.44-24.77Q286.53-25.41 288.42-25.41L288.42-25.41L288.42-25.41Q290.30-25.41 290.30-24.80L290.30-24.80L290.30-24.80Q290.30-24.19 288.10-20.90L288.10-20.90L288.10-20.90Q285.89-17.60 285.89-16.51L285.89-16.51L285.89-16.51Q286.08-16.06 286.53-16.06L286.53-16.06L286.53-16.06Q286.98-16.06 287.49-16.51L287.49-16.51L287.49-16.51Q288.00-16.96 289.15-17.95L289.15-17.95L289.15-17.95Q290.30-18.94 293.41-20.58L293.41-20.58L293.41-20.58Q296.51-22.21 299.04-22.21L299.04-22.21L299.04-22.21Q301.57-22.21 301.57-20.03L301.57-20.03L301.57-20.03Q301.57-18.50 300.93-17.22L300.93-17.22L300.93-17.22Q300.29-15.94 300.29-15.68L300.29-15.68L300.29-15.68Q300.29-15.17 300.83-15.17L300.83-15.17L300.83-15.17Q301.38-15.17 301.82-15.74L301.82-15.74L301.82-15.74Q302.78-16.70 304.35-18.11L304.35-18.11L304.35-18.11Q305.92-19.52 309.60-21.86L309.60-21.86L309.60-21.86Q313.28-24.19 315.58-24.19L315.58-24.19L315.58-24.19Q318.72-24.19 318.72-21.44L318.72-21.44L318.72-21.44Q318.72-19.14 317.09-16.10L317.09-16.10L317.09-16.10Q315.46-13.06 314.88-12L314.88-12L314.88-12Q314.30-10.94 312.48-8L312.48-8L312.48-8Q310.66-5.06 310.02-4L310.02-4L310.02-4Q309.38-2.94 308.26-0.80L308.26-0.80L308.26-0.80Q307.14 1.34 306.62 2.27L306.62 2.27L306.62 2.27Q306.11 3.20 305.86 3.20ZM324.61 3.65L324.61 3.65L324.61 3.65Q320.90 3.65 319.17 1.44L319.17 1.44L319.17 1.44Q317.44-0.77 317.44-4L317.44-4L317.44-4Q317.44-7.23 318.85-10.78L318.85-10.78L318.85-10.78Q320.26-14.34 322.72-17.66L322.72-17.66L322.72-17.66Q325.18-20.99 329.18-23.26L329.18-23.26L329.18-23.26Q333.18-25.54 337.79-25.54L337.79-25.54L337.79-25.54Q339.90-25.54 340.99-24.22L340.99-24.22L340.99-24.22Q342.08-22.91 342.08-21.12L342.08-21.12L342.08-21.12Q342.08-17.41 339.46-14.21L339.46-14.21L339.46-14.21Q336.83-11.01 333.63-9.34L333.63-9.34L333.63-9.34Q330.43-7.68 327.97-7.46L327.97-7.46L327.97-7.46Q325.50-7.23 324.67-6.53L324.67-6.53L324.67-6.53Q323.84-5.82 323.84-3.71L323.84-3.71L323.84-3.71Q323.84-1.60 324.80-0.51L324.80-0.51L324.80-0.51Q325.76 0.58 326.72 0.96L326.72 0.96L326.72 0.96Q327.68 1.34 327.68 1.73L327.68 1.73L327.68 1.73Q327.68 2.62 326.72 3.14L326.72 3.14L326.72 3.14Q325.76 3.65 324.61 3.65ZM335.87-19.52L335.87-19.52L335.87-19.52Q335.87-21.50 334.08-21.50L334.08-21.50L334.08-21.50Q331.52-21.50 328.42-17.92L328.42-17.92L328.42-17.92Q325.31-14.34 325.31-11.46L325.31-11.46L325.31-11.46Q325.31-10.75 326.40-10.75L326.40-10.75L326.40-10.75Q329.02-10.75 332.45-13.44L332.45-13.44L332.45-13.44Q335.87-16.13 335.87-19.52ZM336.45 3.33L336.45 3.33L336.45 3.33Q334.59 3.33 334.59 2.56L334.59 2.56L334.59 2.56Q334.59 2.18 335.04 1.66L335.04 1.66L335.04 1.66Q335.87 1.02 355.55-19.10L355.55-19.10L355.55-19.10Q375.23-39.23 380.61-44.99L380.61-44.99L380.61-44.99Q382.21-46.66 385.98-46.66L385.98-46.66L385.98-46.66Q387.90-46.66 387.90-45.89L387.90-45.89L387.90-45.89Q387.90-45.57 387.46-45.06L387.46-45.06L387.46-45.06Q385.47-43.01 368.06-25.38L368.06-25.38L368.06-25.38Q350.66-7.74 341.95 1.66L341.95 1.66L341.95 1.66Q340.35 3.33 336.45 3.33ZM366.59-8.32L366.59-8.32L366.59-8.32Q365.76-8.32 365.76-8.96L365.76-8.96L365.76-8.96Q365.76-10.24 366.82-11.58L366.82-11.58L366.82-11.58Q367.87-12.93 368.99-13.22L368.99-13.22L368.99-13.22Q370.11-13.50 372.10-13.98L372.10-13.98L372.10-13.98Q374.08-14.46 375.23-14.75L375.23-14.75L375.23-14.75Q376.38-15.04 378.24-15.52L378.24-15.52L378.24-15.52Q380.10-16 381.22-16.32L381.22-16.32L381.22-16.32Q382.34-16.64 383.78-17.09L383.78-17.09L383.78-17.09Q385.22-17.54 386.08-17.89L386.08-17.89L386.08-17.89Q386.94-18.24 387.78-18.69L387.78-18.69L387.78-18.69Q389.38-19.46 389.38-20.16L389.38-20.16L389.38-20.16Q389.38-21.12 385.95-22.24L385.95-22.24L385.95-22.24Q382.53-23.36 379.10-24.45L379.10-24.45L379.10-24.45Q375.68-25.54 375.68-26.43L375.68-26.43L375.68-26.43Q375.68-27.58 376.58-28.86L376.58-28.86L376.58-28.86Q377.47-30.14 378.50-30.14L378.50-30.14L379.26-29.89L379.26-29.89Q388.03-26.30 392.64-25.06L392.64-25.06L392.64-25.06Q397.25-23.81 398.94-23.33L398.94-23.33L398.94-23.33Q400.64-22.85 401.18-22.53L401.18-22.53L401.18-22.53Q401.73-22.21 401.73-21.57L401.73-21.57L401.73-21.57Q401.73-20.93 400.90-19.78L400.90-19.78L400.90-19.78Q400.06-18.62 397.41-17.28L397.41-17.28L397.41-17.28Q394.75-15.94 382.24-12.13L382.24-12.13L382.24-12.13Q369.73-8.32 366.59-8.32Z" fill="#ffffff"></path></g></g><style>text {
  font-size: 64px;
  font-family: Arial Black;
  dominant-baseline: central;
  text-anchor: middle;
}</style></svg>