<?xml version="1.0" standalone="no"?><svg xmlns="http://www.w3.org/2000/svg" viewBox="0 0 1440 320"><path fill="#292930" fill-opacity="1" d="M0,320L14.1,320C28.2,320,56,320,85,272C112.9,224,141,128,169,101.3C197.6,75,226,117,254,154.7C282.4,192,311,224,339,202.7C367.1,181,395,107,424,90.7C451.8,75,480,117,508,165.3C536.5,213,565,267,593,272C621.2,277,649,235,678,197.3C705.9,160,734,128,762,149.3C790.6,171,819,245,847,261.3C875.3,277,904,235,932,197.3C960,160,988,128,1016,138.7C1044.7,149,1073,203,1101,197.3C1129.4,192,1158,128,1186,90.7C1214.1,53,1242,43,1271,64C1298.8,85,1327,139,1355,170.7C1383.5,203,1412,213,1426,218.7L1440,224L1440,0L1425.9,0C1411.8,0,1384,0,1355,0C1327.1,0,1299,0,1271,0C1242.4,0,1214,0,1186,0C1157.6,0,1129,0,1101,0C1072.9,0,1045,0,1016,0C988.2,0,960,0,932,0C903.5,0,875,0,847,0C818.8,0,791,0,762,0C734.1,0,706,0,678,0C649.4,0,621,0,593,0C564.7,0,536,0,508,0C480,0,452,0,424,0C395.3,0,367,0,339,0C310.6,0,282,0,254,0C225.9,0,198,0,169,0C141.2,0,113,0,85,0C56.5,0,28,0,14,0L0,0Z"></path></svg>